<svg id="Calque_1" data-name="Calque 1" xmlns="http://www.w3.org/2000/svg" xmlns:xlink="http://www.w3.org/1999/xlink" viewBox="0 0 900 900"><defs><style>.cls-1,.cls-2,.cls-4{fill:none;}.cls-2,.cls-4,.cls-5{stroke:#e1e1e1;stroke-miterlimit:10;}.cls-2{stroke-width:20px;}.cls-3{clip-path:url(#clip-path);}.cls-4,.cls-5{stroke-width:10px;}.cls-5{fill:#e1e1e1;}</style><clipPath id="clip-path"><rect class="cls-1" x="156.77" y="180.78" width="562.69" height="184.91"/></clipPath></defs><title>logo_sans_auigille</title><path class="cls-2" d="M658.89,427.34C682.62,459,586.18,641,445.14,641.08S207.43,459.7,231.4,427.34c16.94-22.87,87.12,38.22,223.61,35.78C581.38,460.85,643.13,406.31,658.89,427.34Z"/><g class="cls-3"><circle class="cls-4" cx="446.06" cy="428.32" r="213.74"/></g><path class="cls-5" d="M276.06,224.52c9.55,4.95,27.58-5.32,63.63-25.85,41.48-23.62,43.54-31.5,43.74-35.79.82-16.91-24.51-30.8-37.78-35.79-4.88-1.83-40.69-14.69-65.61,6C250.17,157.82,256,214.12,276.06,224.52Z"/><path class="cls-5" d="M512.53,163.26c1,10.72,19.33,20.38,56,39.7,42.24,22.24,50,19.73,53.72,17.59,14.69-8.41,12.75-37.24,9.81-51.1-1.08-5.1-9.52-42.21-40.35-52.08C554.79,105.53,510.48,140.75,512.53,163.26Z"/></svg>